<svg xmlns="http://www.w3.org/2000/svg" width="32" height="32" viewBox="0 0 24 24"><path fill="currentColor" d="M13.05 22v-2.05q.85-.125 1.663-.45q.812-.325 1.537-.85l1.4 1.45q-1.05.8-2.2 1.287q-1.15.488-2.4.613Zm-2 0q-3.45-.45-5.725-2.987Q3.05 16.475 3.05 13.05q0-1.875.713-3.513q.712-1.637 1.925-2.85Q6.9 5.475 8.538 4.762q1.637-.712 3.512-.712h.15L10.65 2.5l1.4-1.45l4 4l-4 4l-1.4-1.4l1.6-1.6h-.2q-2.925 0-4.962 2.038Q5.05 10.125 5.05 13.05q0 2.6 1.7 4.563q1.7 1.962 4.3 2.337Zm8.05-3.35l-1.45-1.4q.525-.725.85-1.538q.325-.812.45-1.662H21q-.125 1.25-.612 2.4q-.488 1.15-1.288 2.2Zm1.9-6.6h-2.05q-.125-.85-.45-1.663q-.325-.812-.85-1.537l1.45-1.4q.8.975 1.275 2.15q.475 1.175.625 2.45Z"/></svg>